<?xml version="1.0" encoding="UTF-8"?>
<svg width="40px" height="40px" viewBox="0 0 40 40" version="1.1" xmlns="http://www.w3.org/2000/svg" xmlns:xlink="http://www.w3.org/1999/xlink">
    <title>编组 2备份 5</title>
    <g id="页面-1" stroke="none" stroke-width="1" fill="none" fill-rule="evenodd">
        <g id="pdf预览模式-更多" transform="translate(-464, -668)">
            <g id="编组-2备份-5" transform="translate(464, 668)">
                <rect id="矩形" x="0" y="0" width="40" height="40"></rect>
                <g id="分享" transform="translate(4.1625, 4.6313)" fill="#626672" fill-rule="nonzero" stroke="#626672" stroke-width="0.7">
                    <path d="M28.325,19.73125 L28.325,26.26875 C28.325,27.39375 27.375,28.3375 26.25625,28.3375 L4.39375,28.375 C3.275,28.375 2.3625,27.4625 2.3625,26.3375 L2.4,4.475 C2.4,3.35625 3.35,2.40625 4.46875,2.40625 L16.5625,2.40625 L16.5625,0 L4.46875,0 C1.9125,0 0,2.5875 0,4.9 L0,26.3375 C0,28.7625 1.96875,30.7375 4.4,30.7375 L25.8375,30.7375 C28.4,30.7375 30.73125,28.60625 30.73125,26.26875 L30.73125,19.73125 L28.325,19.73125 Z M26.2240268,2.7671832 L32.5569775,7.35572483 C33.0042086,7.67976624 33.1040735,8.3050061 32.7800321,8.75223715 C32.7178849,8.83801053 32.6425051,8.91336557 32.5567113,8.97548451 L26.0948476,13.6541923 C25.6475101,13.9780867 25.022303,13.8780162 24.6984086,13.4306787 C24.591162,13.282558 24.5265851,13.1078648 24.5117021,12.9256011 L24.2085395,9.21291666 L24.2085395,9.21291666 C24.2085395,9.21291666 15.0805616,11.4958616 11.1181571,18.1583972 C11.1181571,18.1583972 12.4378065,7.5058061 24.6101719,6.34998959 L24.6373456,3.56720219 C24.6427383,3.01494377 25.0948039,2.57162156 25.6470624,2.57701432 C25.8544509,2.57903946 26.056079,2.64549656 26.2240268,2.7671832 Z" id="形状"></path>
                </g>
            </g>
        </g>
    </g>
</svg>